<svg width="251" height="108" viewBox="0 0 251 108" fill="none" xmlns="http://www.w3.org/2000/svg">
<g id="Vector">
<path d="M75.3017 0.35106C77.4559 0.35106 79.2022 2.09738 79.2022 4.25157V17.6567C79.2022 19.8109 77.4559 21.5572 75.3017 21.5572H50.2759V107.486H29.1551V21.5572H4.28235C2.12816 21.5572 0.381836 19.8109 0.381836 17.6567V4.25157C0.381836 2.09738 2.12815 0.35106 4.28234 0.35106H75.3017Z" fill="#0C0D12"/>
<path d="M77.863 90.5364H108.68V107.486H62.2036C61.1265 107.486 60.2534 106.612 60.2534 105.535V32.3939C60.2534 31.3168 61.1265 30.4437 62.2036 30.4437H104.229C106.383 30.4437 108.129 32.19 108.129 34.3442V43.4924C108.129 45.6466 106.383 47.3929 104.229 47.3929H77.863V60.1599H101.477C103.632 60.1599 105.378 61.9062 105.378 64.0604V72.9885C105.378 75.1426 103.632 76.889 101.477 76.889H77.863V90.5364Z" fill="#0C0D12"/>
<path d="M158.029 0.233887C168.296 0.233887 176.936 4.2096 183.95 11.1218C190.964 18.0339 194.47 26.5217 194.47 36.585C194.47 46.6483 190.964 55.1361 183.95 62.0482C176.936 68.9604 168.296 72.4165 158.029 72.4165H141.225C140.148 72.4165 139.275 73.2896 139.275 74.3667V107.486H118.233V2.18415C118.233 1.10705 119.106 0.233887 120.183 0.233887H158.029ZM158.029 52.7473C162.502 52.7473 166.212 51.2225 169.16 48.1731C172.108 45.0219 173.581 41.1592 173.581 36.585C173.581 31.9091 172.108 28.0464 169.16 24.9969C166.212 21.9475 162.502 20.4227 158.029 20.4227L141.216 20.4971C140.143 20.5018 139.275 21.3736 139.275 22.4473V50.8713C139.275 51.9518 140.153 52.8264 141.234 52.8216L158.029 52.7473Z" fill="#0C0D12"/>
<path d="M216.645 90.5364C217.722 90.5364 218.595 89.6632 218.595 88.5861V58.6777C218.595 56.5235 220.341 54.7772 222.496 54.7772H234.492C236.647 54.7772 238.393 56.5235 238.393 58.6777V105.535C238.393 106.612 237.52 107.486 236.443 107.486H148.403V90.5364H216.645Z" fill="#0C0D12"/>
<path d="M244.059 36.7419C239.913 40.8342 234.851 42.8804 228.874 42.8804C222.897 42.8804 217.836 40.8342 213.69 36.7419C209.543 32.5957 207.47 27.5342 207.47 21.5572C207.47 15.5803 209.543 10.5456 213.69 6.45332C217.836 2.30715 222.897 0.23406 228.874 0.23406C234.851 0.23406 239.913 2.30715 244.059 6.45332C248.205 10.5456 250.278 15.5803 250.278 21.5572C250.278 27.5342 248.205 32.5957 244.059 36.7419ZM222.251 28.4226C224.028 30.1996 226.236 31.088 228.874 31.088C231.513 31.088 233.721 30.1996 235.497 28.4226C237.274 26.6457 238.163 24.3572 238.163 21.5572C238.163 18.7572 237.274 16.4687 235.497 14.6918C233.721 12.9149 231.513 12.0264 228.874 12.0264C226.236 12.0264 224.028 12.9149 222.251 14.6918C220.474 16.4687 219.586 18.7572 219.586 21.5572C219.586 24.3572 220.474 26.6457 222.251 28.4226Z" fill="url(#paint0_linear_1_219)"/>
</g>
<defs>
<linearGradient id="paint0_linear_1_219" x1="125.33" y1="0.233887" x2="125.33" y2="107.486" gradientUnits="userSpaceOnUse">
<stop stop-color="#FA0169"/>
<stop offset="1" stop-color="#FF6610"/>
</linearGradient>
</defs>
</svg>
